<?xml version="1.0" encoding="UTF-8" standalone="no"?>
<!-- Generator: Ikivo Animator 2.2 (build 2.2.0.10) -->
<svg 
   xmlns:dc="http://purl.org/dc/elements/1.1/"
   xmlns:cc="http://web.resource.org/cc/"
   xmlns:rdf="http://www.w3.org/1999/02/22-rdf-syntax-ns#"
   xmlns:svg="http://www.w3.org/2000/svg"
   xmlns="http://www.w3.org/2000/svg"
   xmlns:sodipodi="http://sodipodi.sourceforge.net/DTD/sodipodi-0.dtd"
   xmlns:inkscape="http://www.inkscape.org/namespaces/inkscape"
   baseProfile="tiny"
   display="inherit"
   height="100"
   id="svg"
   version="1.1"
   viewBox="0 0 200 100"
   width="200"
   sodipodi:version="0.32"
   inkscape:version="0.45.1"
   sodipodi:docname="SoloWWW.svg"
   inkscape:output_extension="org.inkscape.output.svg.inkscape"
   sodipodi:docbase="C:\online\Guardian3rd\S60_GuardGUI\gfx">
  <sodipodi:namedview
     inkscape:window-height="480"
     inkscape:window-width="640"
     inkscape:pageshadow="2"
     inkscape:pageopacity="0.0"
     guidetolerance="10.0"
     gridtolerance="10.0"
     objecttolerance="10.0"
     borderopacity="1.0"
     bordercolor="#666666"
     pagecolor="#ffffff"
     id="base" />
  <metadata
     id="metadata76">
    <rdf:RDF>
      <cc:Work
         rdf:about="">
        <dc:format>image/svg+xml</dc:format>
        <dc:type
           rdf:resource="http://purl.org/dc/dcmitype/StillImage" />
      </cc:Work>
    </rdf:RDF>
  </metadata>
  <defs
     display="inherit"
     id="defs5">
    <linearGradient
       id="gr_917"
       x1="0.5"
       x2="0.5"
       y1="1">
      <stop
         offset="0.148"
         stop-color="#ffffff"
         stop-opacity="0"
         id="stop6" />
      <stop
         offset="1"
         stop-color="#000000"
         stop-opacity="0.9"
         id="stop8" />
    </linearGradient>
  </defs>
  <g
     id="ikivo_ctrl_anim">
    <animate
       id="Default"
       keyTimes="0;1"
       repeatDur="5"
       repeatCount="1"
       begin="2000"
       fill="remove"
       values="inherit;inherit;inherit"
       calcMode="discrete"
       attributeName="display"
        />
  </g>
  <text
     xml:space="preserve"
     style="font-weight:normal;font-style:normal;font-size:28px;fill:#000000;fill-opacity:1;stroke:none;stroke-width:1px;stroke-linecap:butt;stroke-linejoin:miter;stroke-opacity:1;font-family:Arial Black"
     x="11.614731"
     y="32.01133"
     id="text2166">
  </text>
  <path
     style="font-size:10px;font-style:normal;font-weight:normal;fill:#000000;fill-opacity:1;stroke:none;stroke-width:1px;stroke-linecap:butt;stroke-linejoin:miter;stroke-opacity:1;font-family:Arial Black"
     d="M 29.079611,14.077909 L 31.003439,14.077909 L 31.8384,17.344511 L 32.893088,14.077909 L 34.68508,14.077909 L 35.77883,17.344511 L 36.613791,14.077909 L 38.52297,14.077909 L 36.613791,19.263456 L 34.846213,19.263456 L 33.796408,16.143339 L 32.780783,19.263456 L 31.003439,19.263456 L 29.079611,14.077909 z M 38.513205,14.077909 L 40.437033,14.077909 L 41.271994,17.344511 L 42.326681,14.077909 L 44.118674,14.077909 L 45.212424,17.344511 L 46.047384,14.077909 L 47.956564,14.077909 L 46.047384,19.263456 L 44.279806,19.263456 L 43.230002,16.143339 L 42.214377,19.263456 L 40.437033,19.263456 L 38.513205,14.077909 z M 47.946799,14.077909 L 49.870627,14.077909 L 50.705588,17.344511 L 51.760275,14.077909 L 53.552267,14.077909 L 54.646017,17.344511 L 55.480978,14.077909 L 57.390158,14.077909 L 55.480978,19.263456 L 53.7134,19.263456 L 52.663595,16.143339 L 51.64797,19.263456 L 49.870627,19.263456 L 47.946799,14.077909 z M 57.971213,17.271269 L 60.095236,17.271269 L 60.095236,19.263456 L 57.971213,19.263456 L 57.971213,17.271269 z M 65.036642,16.670683 L 65.036642,15.181425 L 68.454611,15.181425 L 68.454611,18.233183 C 67.800307,18.679147 67.221694,18.982695 66.718771,19.143827 C 66.215836,19.30496 65.61932,19.385527 64.92922,19.385527 C 64.079608,19.385527 63.387063,19.24067 62.851584,18.950956 C 62.3161,18.661243 61.901062,18.229929 61.606467,17.657011 C 61.31187,17.084097 61.164572,16.426545 61.164572,15.684355 C 61.164572,14.903109 61.325704,14.223585 61.64797,13.645781 C 61.970235,13.067987 62.44224,12.629348 63.063986,12.329863 C 63.549009,12.09875 64.201678,11.98319 65.021994,11.983183 C 65.813004,11.98319 66.404638,12.054805 66.796896,12.198027 C 67.189142,12.341263 67.514663,12.56343 67.773459,12.864531 C 68.03224,13.165643 68.226739,13.547316 68.356955,14.00955 L 66.223166,14.390409 C 66.13527,14.120232 65.986344,13.913527 65.776388,13.770292 C 65.566423,13.627069 65.298682,13.555454 64.973166,13.555449 C 64.488136,13.555454 64.10158,13.723911 63.813498,14.06082 C 63.525409,14.397739 63.381366,14.930778 63.381369,15.659941 C 63.381366,16.434683 63.527037,16.988068 63.818381,17.320097 C 64.109718,17.65213 64.515805,17.818145 65.036642,17.818144 C 65.284034,17.818145 65.520036,17.782338 65.74465,17.710722 C 65.969254,17.639109 66.226415,17.517039 66.516134,17.344511 L 66.516134,16.670683 L 65.036642,16.670683 z M 75.109884,19.263456 L 73.254416,19.263456 L 73.254416,18.423613 C 72.977719,18.768665 72.698585,19.014433 72.417013,19.160917 C 72.135435,19.307402 71.789569,19.380644 71.379416,19.380644 C 70.832539,19.380644 70.403666,19.21707 70.092795,18.889921 C 69.781922,18.562773 69.626485,18.05903 69.626486,17.378691 L 69.626486,14.077909 L 71.623556,14.077909 L 71.623556,16.929472 C 71.623554,17.254995 71.683775,17.486114 71.80422,17.622831 C 71.92466,17.759552 72.093931,17.827911 72.312033,17.827909 C 72.54966,17.827911 72.744158,17.736765 72.895529,17.554472 C 73.046892,17.372182 73.122576,17.045034 73.12258,16.573027 L 73.12258,14.077909 L 75.109884,14.077909 L 75.109884,19.263456 z M 78.137228,15.757597 L 76.237814,15.557402 C 76.309428,15.225374 76.412781,14.964144 76.547873,14.77371 C 76.682963,14.583285 76.877461,14.418084 77.131369,14.278105 C 77.313659,14.177198 77.56431,14.099073 77.883322,14.04373 C 78.20233,13.988397 78.547382,13.960727 78.918478,13.960722 C 79.514178,13.960727 79.992693,13.994093 80.354025,14.06082 C 80.715348,14.127557 81.016455,14.266717 81.257345,14.4783 C 81.426611,14.624789 81.560074,14.832308 81.657736,15.100859 C 81.755386,15.369417 81.804214,15.625765 81.80422,15.869902 L 81.80422,18.159941 C 81.804214,18.404082 81.819677,18.595326 81.850607,18.733671 C 81.881525,18.872018 81.949071,19.048613 82.053244,19.263456 L 80.188009,19.263456 C 80.113135,19.129993 80.064307,19.028268 80.041525,18.958281 C 80.018734,18.888294 79.995948,18.778431 79.973166,18.628691 C 79.712745,18.879342 79.453956,19.058378 79.196799,19.1658 C 78.845233,19.309029 78.436705,19.380644 77.971213,19.380644 C 77.352721,19.380644 76.883158,19.237415 76.562521,18.950956 C 76.241883,18.664499 76.081564,18.311309 76.081564,17.891386 C 76.081564,17.497508 76.197124,17.173615 76.428244,16.919706 C 76.659363,16.665803 77.085795,16.477001 77.707541,16.3533 C 78.452981,16.203564 78.936379,16.098583 79.157736,16.038359 C 79.379087,15.978141 79.613461,15.899202 79.860861,15.801542 C 79.860857,15.557405 79.810401,15.386507 79.709494,15.288847 C 79.608579,15.191195 79.43117,15.142367 79.177267,15.142363 C 78.851743,15.142367 78.607603,15.19445 78.444845,15.298613 C 78.31789,15.379997 78.215351,15.532991 78.137228,15.757597 L 78.137228,15.757597 z M 79.860861,16.802519 C 79.58742,16.900177 79.302589,16.98644 79.006369,17.061308 C 78.60272,17.168732 78.347187,17.274526 78.239767,17.378691 C 78.129088,17.486114 78.073749,17.608185 78.073752,17.744902 C 78.073749,17.901153 78.128274,18.02892 78.237326,18.128202 C 78.346373,18.227487 78.506692,18.277129 78.718283,18.277128 C 78.939634,18.277129 79.145526,18.223418 79.335959,18.115995 C 79.526385,18.008575 79.661476,17.877553 79.741232,17.722929 C 79.820981,17.568308 79.860857,17.367299 79.860861,17.119902 L 79.860861,16.802519 z M 83.024924,14.077909 L 84.885275,14.077909 L 84.885275,14.927519 C 85.064309,14.559685 85.249042,14.306593 85.439474,14.168242 C 85.629901,14.0299 85.865089,13.960727 86.145041,13.960722 C 86.438005,13.960727 86.758643,14.051873 87.106955,14.234159 L 86.49172,15.650175 C 86.257342,15.552523 86.071795,15.503694 85.93508,15.503691 C 85.67466,15.503694 85.472837,15.611116 85.329611,15.825956 C 85.12453,16.128694 85.021991,16.6951 85.021994,17.525175 L 85.021994,19.263456 L 83.024924,19.263456 L 83.024924,14.077909 z M 92.89797,12.105253 L 92.89797,19.263456 L 91.037619,19.263456 L 91.037619,18.496855 C 90.777198,18.822376 90.539568,19.042102 90.324728,19.156034 C 90.038267,19.305774 89.719257,19.380644 89.367697,19.380644 C 88.661315,19.380644 88.121765,19.112089 87.749045,18.57498 C 87.376323,18.037872 87.189962,17.385203 87.189963,16.616972 C 87.189962,15.7576 87.395854,15.100049 87.807638,14.644316 C 88.219421,14.188592 88.742695,13.960727 89.377463,13.960722 C 89.686705,13.960727 89.967466,14.012811 90.219748,14.116972 C 90.472023,14.221144 90.695818,14.377394 90.891134,14.585722 L 90.891134,12.105253 L 92.89797,12.105253 z M 90.905783,16.656034 C 90.905779,16.249136 90.819516,15.945589 90.646994,15.74539 C 90.474464,15.545198 90.256365,15.445101 89.992697,15.445097 C 89.761574,15.445101 89.56789,15.541129 89.411642,15.733183 C 89.25539,15.925244 89.177265,16.247509 89.177267,16.69998 C 89.177265,17.123159 89.257831,17.433217 89.418967,17.630156 C 89.580097,17.827097 89.779478,17.925567 90.017111,17.925566 C 90.271014,17.925567 90.482602,17.826283 90.651877,17.627714 C 90.821144,17.429148 90.905779,17.105255 90.905783,16.656034 L 90.905783,16.656034 z M 94.191916,12.105253 L 96.17922,12.105253 L 96.17922,13.457792 L 94.191916,13.457792 L 94.191916,12.105253 z M 94.191916,14.077909 L 96.17922,14.077909 L 96.17922,19.263456 L 94.191916,19.263456 L 94.191916,14.077909 z M 99.270041,15.757597 L 97.370627,15.557402 C 97.442241,15.225374 97.545593,14.964144 97.680685,14.77371 C 97.815775,14.583285 98.010274,14.418084 98.264181,14.278105 C 98.446471,14.177198 98.697122,14.099073 99.016134,14.04373 C 99.335142,13.988397 99.680194,13.960727 100.05129,13.960722 C 100.64699,13.960727 101.1255,13.994093 101.48684,14.06082 C 101.84816,14.127557 102.14927,14.266717 102.39016,14.4783 C 102.55942,14.624789 102.69288,14.832308 102.79055,15.100859 C 102.8882,15.369417 102.93702,15.625765 102.93703,15.869902 L 102.93703,18.159941 C 102.93702,18.404082 102.95249,18.595326 102.98342,18.733671 C 103.01434,18.872018 103.08188,19.048613 103.18605,19.263456 L 101.32082,19.263456 C 101.24595,19.129993 101.19712,19.028268 101.17434,18.958281 C 101.15154,18.888294 101.12876,18.778431 101.10598,18.628691 C 100.84556,18.879342 100.58677,19.058378 100.32961,19.1658 C 99.978042,19.309029 99.569517,19.380644 99.104025,19.380644 C 98.485534,19.380644 98.015971,19.237415 97.695334,18.950956 C 97.374695,18.664499 97.214376,18.311309 97.214377,17.891386 C 97.214376,17.497508 97.329936,17.173615 97.561056,16.919706 C 97.792175,16.665803 98.218607,16.477001 98.840353,16.3533 C 99.585793,16.203564 100.06919,16.098583 100.29055,16.038359 C 100.5119,15.978141 100.74627,15.899202 100.99367,15.801542 C 100.99367,15.557405 100.94321,15.386507 100.8423,15.288847 C 100.74139,15.191195 100.56398,15.142367 100.31008,15.142363 C 99.984552,15.142367 99.740415,15.19445 99.577658,15.298613 C 99.450702,15.379997 99.348163,15.532991 99.270041,15.757597 L 99.270041,15.757597 z M 100.99367,16.802519 C 100.72023,16.900177 100.4354,16.98644 100.13918,17.061308 C 99.735533,17.168732 99.479999,17.274526 99.37258,17.378691 C 99.2619,17.486114 99.206562,17.608185 99.206564,17.744902 C 99.206562,17.901153 99.261087,18.02892 99.370138,18.128202 C 99.479185,18.227487 99.639504,18.277129 99.851095,18.277128 C 100.07244,18.277129 100.27834,18.223418 100.46877,18.115995 C 100.6592,18.008575 100.79429,17.877553 100.87404,17.722929 C 100.95379,17.568308 100.99367,17.367299 100.99367,17.119902 L 100.99367,16.802519 z M 104.1382,14.077909 L 105.98879,14.077909 L 105.98879,14.922636 C 106.26548,14.577589 106.54543,14.331007 106.82863,14.18289 C 107.11183,14.034783 107.45688,13.960727 107.86379,13.960722 C 108.41391,13.960727 108.84441,14.124301 109.15529,14.451445 C 109.46616,14.778598 109.6216,15.283968 109.6216,15.967558 L 109.6216,19.263456 L 107.62453,19.263456 L 107.62453,16.411894 C 107.62453,16.086376 107.56431,15.85607 107.44387,15.720976 C 107.32342,15.585888 107.15415,15.518343 106.93605,15.518339 C 106.69517,15.518343 106.49985,15.609489 106.35012,15.791777 C 106.20037,15.974072 106.1255,16.30122 106.12551,16.773222 L 106.12551,19.263456 L 104.1382,19.263456 L 104.1382,14.077909 z M 110.82277,17.271269 L 112.9468,17.271269 L 112.9468,19.263456 L 110.82277,19.263456 L 110.82277,17.271269 z M 114.23098,12.105253 L 116.21828,12.105253 L 116.21828,13.457792 L 114.23098,13.457792 L 114.23098,12.105253 z M 114.23098,14.077909 L 116.21828,14.077909 L 116.21828,19.263456 L 114.23098,19.263456 L 114.23098,14.077909 z M 119.89504,12.105253 L 119.89504,14.077909 L 120.98879,14.077909 L 120.98879,15.528105 L 119.89504,15.528105 L 119.89504,17.368925 C 119.89504,17.590281 119.91619,17.736765 119.95852,17.808378 C 120.02362,17.919057 120.13755,17.974395 120.30031,17.974394 C 120.44679,17.974395 120.65187,17.932077 120.91555,17.847441 L 121.06203,19.219511 C 120.57049,19.326933 120.11151,19.380644 119.68508,19.380644 C 119.19028,19.380644 118.8257,19.317167 118.59133,19.190214 C 118.35695,19.063261 118.18361,18.87039 118.07131,18.611601 C 117.959,18.352813 117.90285,17.933705 117.90285,17.354277 L 117.90285,15.528105 L 117.17043,15.528105 L 117.17043,14.077909 L 117.90285,14.077909 L 117.90285,13.125761 L 119.89504,12.105253 z "
     id="text2165" />
  <path
     style="font-size:10px;font-style:normal;font-weight:normal;fill:#000000;fill-opacity:1;stroke:none;stroke-width:1px;stroke-linecap:butt;stroke-linejoin:miter;stroke-opacity:1;font-family:Arial Black"
     d="M 29.079611,25.685766 L 31.003439,25.685766 L 31.8384,22.419164 L 32.893088,25.685766 L 34.68508,25.685766 L 35.77883,22.419164 L 36.613791,25.685766 L 38.52297,25.685766 L 36.613791,20.500219 L 34.846213,20.500219 L 33.796408,23.620336 L 32.780783,20.500219 L 31.003439,20.500219 L 29.079611,25.685766 z M 38.513205,25.685766 L 40.437033,25.685766 L 41.271994,22.419164 L 42.326681,25.685766 L 44.118674,25.685766 L 45.212424,22.419164 L 46.047384,25.685766 L 47.956564,25.685766 L 46.047384,20.500219 L 44.279806,20.500219 L 43.230002,23.620336 L 42.214377,20.500219 L 40.437033,20.500219 L 38.513205,25.685766 z M 47.946799,25.685766 L 49.870627,25.685766 L 50.705588,22.419164 L 51.760275,25.685766 L 53.552267,25.685766 L 54.646017,22.419164 L 55.480978,25.685766 L 57.390158,25.685766 L 55.480978,20.500219 L 53.7134,20.500219 L 52.663595,23.620336 L 51.64797,20.500219 L 49.870627,20.500219 L 47.946799,25.685766 z M 57.971213,22.492406 L 60.095236,22.492406 L 60.095236,20.500219 L 57.971213,20.500219 L 57.971213,22.492406 z M 65.036642,23.092992 L 65.036642,24.58225 L 68.454611,24.58225 L 68.454611,21.530492 C 67.800307,21.084528 67.221694,20.78098 66.718771,20.619848 C 66.215836,20.458715 65.61932,20.378148 64.92922,20.378148 C 64.079608,20.378148 63.387063,20.523005 62.851584,20.812719 C 62.3161,21.102432 61.901062,21.533746 61.606467,22.106664 C 61.31187,22.679578 61.164572,23.33713 61.164572,24.07932 C 61.164572,24.860566 61.325704,25.54009 61.64797,26.117894 C 61.970235,26.695688 62.44224,27.134327 63.063986,27.433812 C 63.549009,27.664925 64.201678,27.780485 65.021994,27.780492 C 65.813004,27.780485 66.404638,27.70887 66.796896,27.565648 C 67.189142,27.422412 67.514663,27.200245 67.773459,26.899144 C 68.03224,26.598032 68.226739,26.216359 68.356955,25.754125 L 66.223166,25.373266 C 66.13527,25.643443 65.986344,25.850148 65.776388,25.993383 C 65.566423,26.136606 65.298682,26.208221 64.973166,26.208226 C 64.488136,26.208221 64.10158,26.039764 63.813498,25.702855 C 63.525409,25.365936 63.381366,24.832897 63.381369,24.103734 C 63.381366,23.328992 63.527037,22.775607 63.818381,22.443578 C 64.109718,22.111545 64.515805,21.94553 65.036642,21.945531 C 65.284034,21.94553 65.520036,21.981337 65.74465,22.052953 C 65.969254,22.124566 66.226415,22.246636 66.516134,22.419164 L 66.516134,23.092992 L 65.036642,23.092992 z M 75.109884,20.500219 L 73.254416,20.500219 L 73.254416,21.340062 C 72.977719,20.99501 72.698585,20.749242 72.417013,20.602758 C 72.135435,20.456273 71.789569,20.383031 71.379416,20.383031 C 70.832539,20.383031 70.403666,20.546605 70.092795,20.873754 C 69.781922,21.200902 69.626485,21.704645 69.626486,22.384984 L 69.626486,25.685766 L 71.623556,25.685766 L 71.623556,22.834203 C 71.623554,22.50868 71.683775,22.277561 71.80422,22.140844 C 71.92466,22.004123 72.093931,21.935764 72.312033,21.935766 C 72.54966,21.935764 72.744158,22.02691 72.895529,22.209203 C 73.046892,22.391493 73.122576,22.718641 73.12258,23.190648 L 73.12258,25.685766 L 75.109884,25.685766 L 75.109884,20.500219 z M 78.137228,24.006078 L 76.237814,24.206273 C 76.309428,24.538301 76.412781,24.799531 76.547873,24.989965 C 76.682963,25.18039 76.877461,25.345591 77.131369,25.48557 C 77.313659,25.586477 77.56431,25.664602 77.883322,25.719945 C 78.20233,25.775278 78.547382,25.802948 78.918478,25.802953 C 79.514178,25.802948 79.992693,25.769582 80.354025,25.702855 C 80.715348,25.636118 81.016455,25.496958 81.257345,25.285375 C 81.426611,25.138886 81.560074,24.931367 81.657736,24.662816 C 81.755386,24.394258 81.804214,24.13791 81.80422,23.893773 L 81.80422,21.603734 C 81.804214,21.359593 81.819677,21.168349 81.850607,21.030004 C 81.881525,20.891657 81.949071,20.715062 82.053244,20.500219 L 80.188009,20.500219 C 80.113135,20.633682 80.064307,20.735407 80.041525,20.805394 C 80.018734,20.875381 79.995948,20.985244 79.973166,21.134984 C 79.712745,20.884333 79.453956,20.705297 79.196799,20.597875 C 78.845233,20.454646 78.436705,20.383031 77.971213,20.383031 C 77.352721,20.383031 76.883158,20.52626 76.562521,20.812719 C 76.241883,21.099176 76.081564,21.452366 76.081564,21.872289 C 76.081564,22.266167 76.197124,22.59006 76.428244,22.843969 C 76.659363,23.097872 77.085795,23.286674 77.707541,23.410375 C 78.452981,23.560111 78.936379,23.665092 79.157736,23.725316 C 79.379087,23.785534 79.613461,23.864473 79.860861,23.962133 C 79.860857,24.20627 79.810401,24.377168 79.709494,24.474828 C 79.608579,24.57248 79.43117,24.621308 79.177267,24.621312 C 78.851743,24.621308 78.607603,24.569225 78.444845,24.465062 C 78.31789,24.383678 78.215351,24.230684 78.137228,24.006078 L 78.137228,24.006078 z M 79.860861,22.961156 C 79.58742,22.863498 79.302589,22.777235 79.006369,22.702367 C 78.60272,22.594943 78.347187,22.489149 78.239767,22.384984 C 78.129088,22.277561 78.073749,22.15549 78.073752,22.018773 C 78.073749,21.862522 78.128274,21.734755 78.237326,21.635473 C 78.346373,21.536188 78.506692,21.486546 78.718283,21.486547 C 78.939634,21.486546 79.145526,21.540257 79.335959,21.64768 C 79.526385,21.7551 79.661476,21.886122 79.741232,22.040746 C 79.820981,22.195367 79.860857,22.396376 79.860861,22.643773 L 79.860861,22.961156 z M 83.024924,25.685766 L 84.885275,25.685766 L 84.885275,24.836156 C 85.064309,25.20399 85.249042,25.457082 85.439474,25.595433 C 85.629901,25.733775 85.865089,25.802948 86.145041,25.802953 C 86.438005,25.802948 86.758643,25.711802 87.106955,25.529516 L 86.49172,24.1135 C 86.257342,24.211152 86.071795,24.259981 85.93508,24.259984 C 85.67466,24.259981 85.472837,24.152559 85.329611,23.937719 C 85.12453,23.634981 85.021991,23.068575 85.021994,22.2385 L 85.021994,20.500219 L 83.024924,20.500219 L 83.024924,25.685766 z M 92.89797,27.658422 L 92.89797,20.500219 L 91.037619,20.500219 L 91.037619,21.26682 C 90.777198,20.941299 90.539568,20.721573 90.324728,20.607641 C 90.038267,20.457901 89.719257,20.383031 89.367697,20.383031 C 88.661315,20.383031 88.121765,20.651586 87.749045,21.188695 C 87.376323,21.725803 87.189962,22.378472 87.189963,23.146703 C 87.189962,24.006075 87.395854,24.663626 87.807638,25.119359 C 88.219421,25.575083 88.742695,25.802948 89.377463,25.802953 C 89.686705,25.802948 89.967466,25.750864 90.219748,25.646703 C 90.472023,25.542531 90.695818,25.386281 90.891134,25.177953 L 90.891134,27.658422 L 92.89797,27.658422 z M 90.905783,23.107641 C 90.905779,23.514539 90.819516,23.818086 90.646994,24.018285 C 90.474464,24.218477 90.256365,24.318574 89.992697,24.318578 C 89.761574,24.318574 89.56789,24.222546 89.411642,24.030492 C 89.25539,23.838431 89.177265,23.516166 89.177267,23.063695 C 89.177265,22.640516 89.257831,22.330458 89.418967,22.133519 C 89.580097,21.936578 89.779478,21.838108 90.017111,21.838109 C 90.271014,21.838108 90.482602,21.937392 90.651877,22.135961 C 90.821144,22.334527 90.905779,22.65842 90.905783,23.107641 L 90.905783,23.107641 z M 94.191916,27.658422 L 96.17922,27.658422 L 96.17922,26.305883 L 94.191916,26.305883 L 94.191916,27.658422 z M 94.191916,25.685766 L 96.17922,25.685766 L 96.17922,20.500219 L 94.191916,20.500219 L 94.191916,25.685766 z M 99.270041,24.006078 L 97.370627,24.206273 C 97.442241,24.538301 97.545593,24.799531 97.680685,24.989965 C 97.815775,25.18039 98.010274,25.345591 98.264181,25.48557 C 98.446471,25.586477 98.697122,25.664602 99.016134,25.719945 C 99.335142,25.775278 99.680194,25.802948 100.05129,25.802953 C 100.64699,25.802948 101.1255,25.769582 101.48684,25.702855 C 101.84816,25.636118 102.14927,25.496958 102.39016,25.285375 C 102.55942,25.138886 102.69288,24.931367 102.79055,24.662816 C 102.8882,24.394258 102.93702,24.13791 102.93703,23.893773 L 102.93703,21.603734 C 102.93702,21.359593 102.95249,21.168349 102.98342,21.030004 C 103.01434,20.891657 103.08188,20.715062 103.18605,20.500219 L 101.32082,20.500219 C 101.24595,20.633682 101.19712,20.735407 101.17434,20.805394 C 101.15154,20.875381 101.12876,20.985244 101.10598,21.134984 C 100.84556,20.884333 100.58677,20.705297 100.32961,20.597875 C 99.978042,20.454646 99.569517,20.383031 99.104025,20.383031 C 98.485534,20.383031 98.015971,20.52626 97.695334,20.812719 C 97.374695,21.099176 97.214376,21.452366 97.214377,21.872289 C 97.214376,22.266167 97.329936,22.59006 97.561056,22.843969 C 97.792175,23.097872 98.218607,23.286674 98.840353,23.410375 C 99.585793,23.560111 100.06919,23.665092 100.29055,23.725316 C 100.5119,23.785534 100.74627,23.864473 100.99367,23.962133 C 100.99367,24.20627 100.94321,24.377168 100.8423,24.474828 C 100.74139,24.57248 100.56398,24.621308 100.31008,24.621312 C 99.984552,24.621308 99.740415,24.569225 99.577658,24.465062 C 99.450702,24.383678 99.348163,24.230684 99.270041,24.006078 L 99.270041,24.006078 z M 100.99367,22.961156 C 100.72023,22.863498 100.4354,22.777235 100.13918,22.702367 C 99.735533,22.594943 99.479999,22.489149 99.37258,22.384984 C 99.2619,22.277561 99.206562,22.15549 99.206564,22.018773 C 99.206562,21.862522 99.261087,21.734755 99.370138,21.635473 C 99.479185,21.536188 99.639504,21.486546 99.851095,21.486547 C 100.07244,21.486546 100.27834,21.540257 100.46877,21.64768 C 100.6592,21.7551 100.79429,21.886122 100.87404,22.040746 C 100.95379,22.195367 100.99367,22.396376 100.99367,22.643773 L 100.99367,22.961156 z M 104.1382,25.685766 L 105.98879,25.685766 L 105.98879,24.841039 C 106.26548,25.186086 106.54543,25.432668 106.82863,25.580785 C 107.11183,25.728892 107.45688,25.802948 107.86379,25.802953 C 108.41391,25.802948 108.84441,25.639374 109.15529,25.31223 C 109.46616,24.985077 109.6216,24.479707 109.6216,23.796117 L 109.6216,20.500219 L 107.62453,20.500219 L 107.62453,23.351781 C 107.62453,23.677299 107.56431,23.907605 107.44387,24.042699 C 107.32342,24.177787 107.15415,24.245332 106.93605,24.245336 C 106.69517,24.245332 106.49985,24.154186 106.35012,23.971898 C 106.20037,23.789603 106.1255,23.462455 106.12551,22.990453 L 106.12551,20.500219 L 104.1382,20.500219 L 104.1382,25.685766 z M 110.82277,22.492406 L 112.9468,22.492406 L 112.9468,20.500219 L 110.82277,20.500219 L 110.82277,22.492406 z M 114.23098,27.658422 L 116.21828,27.658422 L 116.21828,26.305883 L 114.23098,26.305883 L 114.23098,27.658422 z M 114.23098,25.685766 L 116.21828,25.685766 L 116.21828,20.500219 L 114.23098,20.500219 L 114.23098,25.685766 z M 119.89504,27.658422 L 119.89504,25.685766 L 120.98879,25.685766 L 120.98879,24.23557 L 119.89504,24.23557 L 119.89504,22.39475 C 119.89504,22.173394 119.91619,22.02691 119.95852,21.955297 C 120.02362,21.844618 120.13755,21.78928 120.30031,21.789281 C 120.44679,21.78928 120.65187,21.831598 120.91555,21.916234 L 121.06203,20.544164 C 120.57049,20.436742 120.11151,20.383031 119.68508,20.383031 C 119.19028,20.383031 118.8257,20.446508 118.59133,20.573461 C 118.35695,20.700414 118.18361,20.893285 118.07131,21.152074 C 117.959,21.410862 117.90285,21.82997 117.90285,22.409398 L 117.90285,24.23557 L 117.17043,24.23557 L 117.17043,25.685766 L 117.90285,25.685766 L 117.90285,26.637914 L 119.89504,27.658422 z "
     id="path2170" />
</svg>
